@startuml
class UniTaskAsyncEnumerable <<static>> <<partial>> {
    + {static} DistinctUntilChanged(source:IUniTaskAsyncEnumerable<TSource>) : IUniTaskAsyncEnumerable<TSource>
    + {static} DistinctUntilChanged(source:IUniTaskAsyncEnumerable<TSource>, comparer:IEqualityComparer<TSource>) : IUniTaskAsyncEnumerable<TSource>
    + {static} DistinctUntilChanged(source:IUniTaskAsyncEnumerable<TSource>, keySelector:Func<TSource, TKey>) : IUniTaskAsyncEnumerable<TSource>
    + {static} DistinctUntilChanged(source:IUniTaskAsyncEnumerable<TSource>, keySelector:Func<TSource, TKey>, comparer:IEqualityComparer<TKey>) : IUniTaskAsyncEnumerable<TSource>
    + {static} DistinctUntilChangedAwait(source:IUniTaskAsyncEnumerable<TSource>, keySelector:Func<TSource, UniTask<TKey>>) : IUniTaskAsyncEnumerable<TSource>
    + {static} DistinctUntilChangedAwait(source:IUniTaskAsyncEnumerable<TSource>, keySelector:Func<TSource, UniTask<TKey>>, comparer:IEqualityComparer<TKey>) : IUniTaskAsyncEnumerable<TSource>
    + {static} DistinctUntilChangedAwaitWithCancellation(source:IUniTaskAsyncEnumerable<TSource>, keySelector:Func<TSource, CancellationToken, UniTask<TKey>>) : IUniTaskAsyncEnumerable<TSource>
    + {static} DistinctUntilChangedAwaitWithCancellation(source:IUniTaskAsyncEnumerable<TSource>, keySelector:Func<TSource, CancellationToken, UniTask<TKey>>, comparer:IEqualityComparer<TKey>) : IUniTaskAsyncEnumerable<TSource>
}
class "DistinctUntilChanged`1"<TSource> <<sealed>> {
    + DistinctUntilChanged(source:IUniTaskAsyncEnumerable<TSource>, comparer:IEqualityComparer<TSource>)
    + GetAsyncEnumerator(cancellationToken:CancellationToken) : IUniTaskAsyncEnumerator<TSource>
}
class "DistinctUntilChanged`2"<TSource,TKey> <<sealed>> {
    + DistinctUntilChanged(source:IUniTaskAsyncEnumerable<TSource>, keySelector:Func<TSource, TKey>, comparer:IEqualityComparer<TKey>)
    + GetAsyncEnumerator(cancellationToken:CancellationToken) : IUniTaskAsyncEnumerator<TSource>
}
class "DistinctUntilChangedAwait`2"<TSource,TKey> <<sealed>> {
    + DistinctUntilChangedAwait(source:IUniTaskAsyncEnumerable<TSource>, keySelector:Func<TSource, UniTask<TKey>>, comparer:IEqualityComparer<TKey>)
    + GetAsyncEnumerator(cancellationToken:CancellationToken) : IUniTaskAsyncEnumerator<TSource>
}
class "DistinctUntilChangedAwaitWithCancellation`2"<TSource,TKey> <<sealed>> {
    + DistinctUntilChangedAwaitWithCancellation(source:IUniTaskAsyncEnumerable<TSource>, keySelector:Func<TSource, CancellationToken, UniTask<TKey>>, comparer:IEqualityComparer<TKey>)
    + GetAsyncEnumerator(cancellationToken:CancellationToken) : IUniTaskAsyncEnumerator<TSource>
}
class "IUniTaskAsyncEnumerable`1"<T> {
}
class _DistinctUntilChanged <<sealed>> {
    + _DistinctUntilChanged(source:IUniTaskAsyncEnumerable<TSource>, comparer:IEqualityComparer<TSource>, cancellationToken:CancellationToken)
    + MoveNextAsync() : UniTask<bool>
    + DisposeAsync() : UniTask
}
class _DistinctUntilChanged <<sealed>> {
    + _DistinctUntilChanged(source:IUniTaskAsyncEnumerable<TSource>, keySelector:Func<TSource, TKey>, comparer:IEqualityComparer<TKey>, cancellationToken:CancellationToken)
    + MoveNextAsync() : UniTask<bool>
    + DisposeAsync() : UniTask
}
class _DistinctUntilChangedAwait <<sealed>> {
    + _DistinctUntilChangedAwait(source:IUniTaskAsyncEnumerable<TSource>, keySelector:Func<TSource, UniTask<TKey>>, comparer:IEqualityComparer<TKey>, cancellationToken:CancellationToken)
    + MoveNextAsync() : UniTask<bool>
    + DisposeAsync() : UniTask
}
class _DistinctUntilChangedAwaitWithCancellation <<sealed>> {
    + _DistinctUntilChangedAwaitWithCancellation(source:IUniTaskAsyncEnumerable<TSource>, keySelector:Func<TSource, CancellationToken, UniTask<TKey>>, comparer:IEqualityComparer<TKey>, cancellationToken:CancellationToken)
    + MoveNextAsync() : UniTask<bool>
    + DisposeAsync() : UniTask
}
class "IUniTaskAsyncEnumerator`1"<T> {
}
"IUniTaskAsyncEnumerable`1" "<TSource>" <|-- "DistinctUntilChanged`1"
"IUniTaskAsyncEnumerable`1" "<TSource>" <|-- "DistinctUntilChanged`2"
"IUniTaskAsyncEnumerable`1" "<TSource>" <|-- "DistinctUntilChangedAwait`2"
"IUniTaskAsyncEnumerable`1" "<TSource>" <|-- "DistinctUntilChangedAwaitWithCancellation`2"
"DistinctUntilChanged`1" +-- _DistinctUntilChanged
MoveNextSource <|-- _DistinctUntilChanged
"IUniTaskAsyncEnumerator`1" "<TSource>" <|-- _DistinctUntilChanged
_DistinctUntilChanged --> "Current" TSource
"DistinctUntilChanged`2" +-- _DistinctUntilChanged
MoveNextSource <|-- _DistinctUntilChanged
"IUniTaskAsyncEnumerator`1" "<TSource>" <|-- _DistinctUntilChanged
_DistinctUntilChanged --> "Current" TSource
"DistinctUntilChangedAwait`2" +-- _DistinctUntilChangedAwait
MoveNextSource <|-- _DistinctUntilChangedAwait
"IUniTaskAsyncEnumerator`1" "<TSource>" <|-- _DistinctUntilChangedAwait
_DistinctUntilChangedAwait --> "Current" TSource
"DistinctUntilChangedAwaitWithCancellation`2" +-- _DistinctUntilChangedAwaitWithCancellation
MoveNextSource <|-- _DistinctUntilChangedAwaitWithCancellation
"IUniTaskAsyncEnumerator`1" "<TSource>" <|-- _DistinctUntilChangedAwaitWithCancellation
_DistinctUntilChangedAwaitWithCancellation --> "Current" TSource
@enduml
