@startuml
class UniTaskAsyncEnumerable <<static>> <<partial>> {
    + {static} Queue(source:IUniTaskAsyncEnumerable<TSource>) : IUniTaskAsyncEnumerable<TSource>
}
class "QueueOperator`1"<TSource> <<sealed>> {
    + QueueOperator(source:IUniTaskAsyncEnumerable<TSource>)
    + GetAsyncEnumerator(cancellationToken:CancellationToken) : IUniTaskAsyncEnumerator<TSource>
}
class "IUniTaskAsyncEnumerable`1"<T> {
}
class _Queue <<sealed>> {
    + _Queue(source:IUniTaskAsyncEnumerable<TSource>, cancellationToken:CancellationToken)
    + MoveNextAsync() : UniTask<bool>
    + <<async>> DisposeAsync() : UniTask
}
class "IUniTaskAsyncEnumerator`1"<T> {
}
"IUniTaskAsyncEnumerable`1" "<TSource>" <|-- "QueueOperator`1"
"QueueOperator`1" +-- _Queue
"IUniTaskAsyncEnumerator`1" "<TSource>" <|-- _Queue
_Queue --> "Current" TSource
@enduml
