@startuml
class UniTask <<struct>> {
    + {static} WaitUntil(predicate:Func<bool>, timing:PlayerLoopTiming, cancellationToken:CancellationToken) : UniTask
    + {static} WaitWhile(predicate:Func<bool>, timing:PlayerLoopTiming, cancellationToken:CancellationToken) : UniTask
    + {static} WaitUntilCanceled(cancellationToken:CancellationToken, timing:PlayerLoopTiming) : UniTask
    + {static} WaitUntilValueChanged(target:T, monitorFunction:Func<T, U>, monitorTiming:PlayerLoopTiming, equalityComparer:IEqualityComparer<U>, cancellationToken:CancellationToken) : UniTask<U>
}
class WaitUntilPromise <<sealed>> {
    + {static} Create(predicate:Func<bool>, timing:PlayerLoopTiming, cancellationToken:CancellationToken, token:short) : IUniTaskSource
    + GetResult(token:short) : void
    + GetStatus(token:short) : UniTaskStatus
    + UnsafeGetStatus() : UniTaskStatus
    + OnCompleted(continuation:Action<object>, state:object, token:short) : void
    + MoveNext() : bool
}
class WaitWhilePromise <<sealed>> {
    + {static} Create(predicate:Func<bool>, timing:PlayerLoopTiming, cancellationToken:CancellationToken, token:short) : IUniTaskSource
    + GetResult(token:short) : void
    + GetStatus(token:short) : UniTaskStatus
    + UnsafeGetStatus() : UniTaskStatus
    + OnCompleted(continuation:Action<object>, state:object, token:short) : void
    + MoveNext() : bool
}
class WaitUntilCanceledPromise <<sealed>> {
    + {static} Create(cancellationToken:CancellationToken, timing:PlayerLoopTiming, token:short) : IUniTaskSource
    + GetResult(token:short) : void
    + GetStatus(token:short) : UniTaskStatus
    + UnsafeGetStatus() : UniTaskStatus
    + OnCompleted(continuation:Action<object>, state:object, token:short) : void
    + MoveNext() : bool
}
class "WaitUntilValueChangedUnityObjectPromise`2"<T,U> <<sealed>> {
    + {static} Create(target:T, monitorFunction:Func<T, U>, equalityComparer:IEqualityComparer<U>, timing:PlayerLoopTiming, cancellationToken:CancellationToken, token:short) : IUniTaskSource<U>
    + GetResult(token:short) : U
    + GetStatus(token:short) : UniTaskStatus
    + UnsafeGetStatus() : UniTaskStatus
    + OnCompleted(continuation:Action<object>, state:object, token:short) : void
    + MoveNext() : bool
}
class "WaitUntilValueChangedStandardObjectPromise`2"<T,U> <<sealed>> {
    + {static} Create(target:T, monitorFunction:Func<T, U>, equalityComparer:IEqualityComparer<U>, timing:PlayerLoopTiming, cancellationToken:CancellationToken, token:short) : IUniTaskSource<U>
    + GetResult(token:short) : U
    + GetStatus(token:short) : UniTaskStatus
    + UnsafeGetStatus() : UniTaskStatus
    + OnCompleted(continuation:Action<object>, state:object, token:short) : void
    + MoveNext() : bool
}
class "ITaskPoolNode`1"<T> {
}
class "IUniTaskSource`1"<T> {
}
UniTask +-- WaitUntilPromise
IUniTaskSource <|-- WaitUntilPromise
IPlayerLoopItem <|-- WaitUntilPromise
"ITaskPoolNode`1" "<WaitUntilPromise>" <|-- WaitUntilPromise
UniTask +-- WaitWhilePromise
IUniTaskSource <|-- WaitWhilePromise
IPlayerLoopItem <|-- WaitWhilePromise
"ITaskPoolNode`1" "<WaitWhilePromise>" <|-- WaitWhilePromise
UniTask +-- WaitUntilCanceledPromise
IUniTaskSource <|-- WaitUntilCanceledPromise
IPlayerLoopItem <|-- WaitUntilCanceledPromise
"ITaskPoolNode`1" "<WaitUntilCanceledPromise>" <|-- WaitUntilCanceledPromise
UniTask +-- "WaitUntilValueChangedUnityObjectPromise`2"
"IUniTaskSource`1" "<U>" <|-- "WaitUntilValueChangedUnityObjectPromise`2"
IPlayerLoopItem <|-- "WaitUntilValueChangedUnityObjectPromise`2"
"ITaskPoolNode`1" "<WaitUntilValueChangedUnityObjectPromise<T, U>>" <|-- "WaitUntilValueChangedUnityObjectPromise`2"
UniTask +-- "WaitUntilValueChangedStandardObjectPromise`2"
"IUniTaskSource`1" "<U>" <|-- "WaitUntilValueChangedStandardObjectPromise`2"
IPlayerLoopItem <|-- "WaitUntilValueChangedStandardObjectPromise`2"
"ITaskPoolNode`1" "<WaitUntilValueChangedStandardObjectPromise<T, U>>" <|-- "WaitUntilValueChangedStandardObjectPromise`2"
@enduml
